REM MD5 291bd9db4be986884397543349344ab2
FILE "Chronicles of the Sword (France) (Disc 1).bin" BINARY
  TRACK 01 MODE2/2352
    INDEX 01 00:00:00
  TRACK 02 AUDIO
    INDEX 00 22:08:00
    INDEX 01 22:10:00
  TRACK 03 AUDIO
    INDEX 00 22:24:00
    INDEX 01 22:26:00
  TRACK 04 AUDIO
    INDEX 00 24:18:00
    INDEX 01 24:20:00
  TRACK 05 AUDIO
    INDEX 00 28:28:00
    INDEX 01 28:30:00
  TRACK 06 AUDIO
    INDEX 00 28:43:00
    INDEX 01 28:45:00
  TRACK 07 AUDIO
    INDEX 00 28:54:00
    INDEX 01 28:56:00
  TRACK 08 AUDIO
    INDEX 00 29:05:00
    INDEX 01 29:07:00
  TRACK 09 AUDIO
    INDEX 00 29:24:00
    INDEX 01 29:26:00
  TRACK 10 AUDIO
    INDEX 00 29:40:00
    INDEX 01 29:42:00
  TRACK 11 AUDIO
    INDEX 00 30:06:00
    INDEX 01 30:08:00
  TRACK 12 AUDIO
    INDEX 00 30:20:00
    INDEX 01 30:22:00
  TRACK 13 AUDIO
    INDEX 00 30:35:00
    INDEX 01 30:37:00
  TRACK 14 AUDIO
    INDEX 00 30:45:00
    INDEX 01 30:47:00
  TRACK 15 AUDIO
    INDEX 00 30:52:00
    INDEX 01 30:54:00
  TRACK 16 AUDIO
    INDEX 00 31:16:00
    INDEX 01 31:18:00
  TRACK 17 AUDIO
    INDEX 00 31:28:00
    INDEX 01 31:30:00
  TRACK 18 AUDIO
    INDEX 00 35:21:00
    INDEX 01 35:23:00
  TRACK 19 AUDIO
    INDEX 00 39:19:00
    INDEX 01 39:21:00
  TRACK 20 AUDIO
    INDEX 00 39:26:00
    INDEX 01 39:28:00
  TRACK 21 AUDIO
    INDEX 00 40:20:00
    INDEX 01 40:22:00
  TRACK 22 AUDIO
    INDEX 00 40:27:00
    INDEX 01 40:29:00
  TRACK 23 AUDIO
    INDEX 00 45:38:00
    INDEX 01 45:40:00
  TRACK 24 AUDIO
    INDEX 00 54:02:00
    INDEX 01 54:04:00
  TRACK 25 AUDIO
    INDEX 00 54:15:00
    INDEX 01 54:17:00
  TRACK 26 AUDIO
    INDEX 00 55:34:00
    INDEX 01 55:36:00
  TRACK 27 AUDIO
    INDEX 00 55:42:00
    INDEX 01 55:44:00
  TRACK 28 AUDIO
    INDEX 00 56:24:00
    INDEX 01 56:26:00
  TRACK 29 AUDIO
    INDEX 00 57:15:00
    INDEX 01 57:17:00
  TRACK 30 AUDIO
    INDEX 00 57:24:00
    INDEX 01 57:26:00
  TRACK 31 AUDIO
    INDEX 00 57:32:00
    INDEX 01 57:34:00
  TRACK 32 AUDIO
    INDEX 00 57:42:00
    INDEX 01 57:44:00
  TRACK 33 AUDIO
    INDEX 00 57:49:00
    INDEX 01 57:51:00
  TRACK 34 AUDIO
    INDEX 00 57:56:00
    INDEX 01 57:58:00
  TRACK 35 AUDIO
    INDEX 00 62:19:00
    INDEX 01 62:21:00
  TRACK 36 AUDIO
    INDEX 00 62:30:00
    INDEX 01 62:32:00
  TRACK 37 AUDIO
    INDEX 00 62:44:00
    INDEX 01 62:46:00
  TRACK 38 AUDIO
    INDEX 00 63:15:00
    INDEX 01 63:17:00
  TRACK 39 AUDIO
    INDEX 00 63:24:00
    INDEX 01 63:26:00
  TRACK 40 AUDIO
    INDEX 00 63:31:00
    INDEX 01 63:33:00
  TRACK 41 AUDIO
    INDEX 00 63:53:00
    INDEX 01 63:55:00
  TRACK 42 AUDIO
    INDEX 00 64:44:00
    INDEX 01 64:46:00
  TRACK 43 AUDIO
    INDEX 00 65:30:00
    INDEX 01 65:32:00
  TRACK 44 AUDIO
    INDEX 00 66:09:00
    INDEX 01 66:11:00
  TRACK 45 AUDIO
    INDEX 00 66:26:00
    INDEX 01 66:28:00
  TRACK 46 AUDIO
    INDEX 00 66:43:00
    INDEX 01 66:45:00
  TRACK 47 AUDIO
    INDEX 00 67:23:00
    INDEX 01 67:25:00
REM LEADOUT 70:35:10
